<mxfile host="app.diagrams.net" modified="2023-07-14T14:52:15.583Z" agent="Mozilla/5.0 (Macintosh; Intel Mac OS X 10_15_7) AppleWebKit/537.36 (KHTML, like Gecko) Chrome/114.0.0.0 Safari/537.36" etag="nRcGwbSJ2B-y8MJfM_OU" version="21.6.1" type="github">
  <diagram name="Page-1" id="JnxGlPK9Kuet49fovusV">
    <mxGraphModel dx="607" dy="-373" grid="1" gridSize="10" guides="1" tooltips="1" connect="1" arrows="1" fold="1" page="1" pageScale="1" pageWidth="827" pageHeight="1169" math="0" shadow="0">
      <root>
        <mxCell id="0" />
        <mxCell id="1" parent="0" />
        <mxCell id="cmNSAkcjIxK5GPrsxuBp-1" value="Dealer Web Page" style="text;html=1;strokeColor=none;fillColor=none;align=center;verticalAlign=middle;rounded=0;fontSize=19;" vertex="1" parent="1">
          <mxGeometry x="1226" y="1240" width="60" height="30" as="geometry" />
        </mxCell>
        <mxCell id="cmNSAkcjIxK5GPrsxuBp-2" value="" style="edgeStyle=orthogonalEdgeStyle;rounded=0;orthogonalLoop=1;jettySize=auto;html=1;" edge="1" parent="1" source="cmNSAkcjIxK5GPrsxuBp-4" target="cmNSAkcjIxK5GPrsxuBp-9">
          <mxGeometry relative="1" as="geometry" />
        </mxCell>
        <mxCell id="cmNSAkcjIxK5GPrsxuBp-3" value="Submit For Approval&lt;br&gt;Action: Escalate to role &quot;client-services&quot;" style="edgeLabel;html=1;align=center;verticalAlign=middle;resizable=0;points=[];" vertex="1" connectable="0" parent="cmNSAkcjIxK5GPrsxuBp-2">
          <mxGeometry x="-0.225" y="-1" relative="1" as="geometry">
            <mxPoint x="1" y="9" as="offset" />
          </mxGeometry>
        </mxCell>
        <mxCell id="cmNSAkcjIxK5GPrsxuBp-4" value="start" style="ellipse;whiteSpace=wrap;html=1;" vertex="1" parent="1">
          <mxGeometry x="1221" y="1310" width="40" height="40" as="geometry" />
        </mxCell>
        <mxCell id="cmNSAkcjIxK5GPrsxuBp-5" style="edgeStyle=orthogonalEdgeStyle;rounded=0;orthogonalLoop=1;jettySize=auto;html=1;exitX=0.25;exitY=1;exitDx=0;exitDy=0;entryX=0.5;entryY=0;entryDx=0;entryDy=0;" edge="1" parent="1" source="cmNSAkcjIxK5GPrsxuBp-9" target="cmNSAkcjIxK5GPrsxuBp-10">
          <mxGeometry relative="1" as="geometry" />
        </mxCell>
        <mxCell id="cmNSAkcjIxK5GPrsxuBp-6" value="Approve&lt;br&gt;Action: Notify creator" style="edgeLabel;html=1;align=center;verticalAlign=middle;resizable=0;points=[];" vertex="1" connectable="0" parent="cmNSAkcjIxK5GPrsxuBp-5">
          <mxGeometry x="-0.2" y="1" relative="1" as="geometry">
            <mxPoint x="-18" as="offset" />
          </mxGeometry>
        </mxCell>
        <mxCell id="cmNSAkcjIxK5GPrsxuBp-7" style="edgeStyle=orthogonalEdgeStyle;rounded=0;orthogonalLoop=1;jettySize=auto;html=1;exitX=0.75;exitY=1;exitDx=0;exitDy=0;" edge="1" parent="1" source="cmNSAkcjIxK5GPrsxuBp-9" target="cmNSAkcjIxK5GPrsxuBp-11">
          <mxGeometry relative="1" as="geometry" />
        </mxCell>
        <mxCell id="cmNSAkcjIxK5GPrsxuBp-8" value="Decline" style="edgeLabel;html=1;align=center;verticalAlign=middle;resizable=0;points=[];" vertex="1" connectable="0" parent="cmNSAkcjIxK5GPrsxuBp-7">
          <mxGeometry x="-0.088" y="1" relative="1" as="geometry">
            <mxPoint x="6" as="offset" />
          </mxGeometry>
        </mxCell>
        <mxCell id="cmNSAkcjIxK5GPrsxuBp-9" value="Awaiting Agency Approval" style="rounded=0;whiteSpace=wrap;html=1;" vertex="1" parent="1">
          <mxGeometry x="1181" y="1430" width="120" height="40" as="geometry" />
        </mxCell>
        <mxCell id="cmNSAkcjIxK5GPrsxuBp-10" value="Approved" style="rounded=0;whiteSpace=wrap;html=1;" vertex="1" parent="1">
          <mxGeometry x="981" y="1550" width="120" height="40" as="geometry" />
        </mxCell>
        <mxCell id="cmNSAkcjIxK5GPrsxuBp-11" value="Rejected" style="rounded=0;whiteSpace=wrap;html=1;" vertex="1" parent="1">
          <mxGeometry x="1381" y="1550" width="120" height="40" as="geometry" />
        </mxCell>
      </root>
    </mxGraphModel>
  </diagram>
</mxfile>
